<mxfile host="app.diagrams.net" modified="2020-10-20T21:23:47.483Z" agent="5.0 (Windows)" etag="XhxDTgwnvbWToI975o3J" version="13.8.1" type="github">
  <diagram id="9Z0rajO9vy1eAtT90HRV" name="Page-1">
    <mxGraphModel dx="1736" dy="1036" grid="1" gridSize="10" guides="1" tooltips="1" connect="1" arrows="1" fold="1" page="1" pageScale="1" pageWidth="850" pageHeight="1100" math="0" shadow="0">
      <root>
        <mxCell id="0" />
        <mxCell id="1" parent="0" />
        <mxCell id="_uAHY--KUr31Mtknl9wJ-1" value="&lt;h1&gt;&amp;lt;HEADER&amp;gt;&lt;br&gt;&lt;/h1&gt;" style="rounded=0;whiteSpace=wrap;html=1;fillColor=#dae8fc;strokeColor=#6c8ebf;" parent="1" vertex="1">
          <mxGeometry width="1100" height="100" as="geometry" />
        </mxCell>
        <mxCell id="_uAHY--KUr31Mtknl9wJ-2" value="" style="rounded=0;whiteSpace=wrap;html=1;fillColor=#f5f5f5;strokeColor=#666666;fontColor=#333333;" parent="1" vertex="1">
          <mxGeometry y="100" width="250" height="750" as="geometry" />
        </mxCell>
        <mxCell id="_uAHY--KUr31Mtknl9wJ-3" value="" style="verticalLabelPosition=bottom;shadow=0;dashed=0;align=center;html=1;verticalAlign=top;strokeWidth=1;shape=mxgraph.mockup.navigation.scrollBar;strokeColor=#999999;barPos=20;fillColor2=#99ddff;strokeColor2=none;direction=north;" parent="1" vertex="1">
          <mxGeometry x="1080" y="100" width="20" height="750" as="geometry" />
        </mxCell>
        <mxCell id="_uAHY--KUr31Mtknl9wJ-4" value="" style="endArrow=none;html=1;exitX=1;exitY=1;exitDx=0;exitDy=0;entryX=0;entryY=0.07;entryDx=0;entryDy=0;entryPerimeter=0;" parent="1" source="_uAHY--KUr31Mtknl9wJ-2" target="_uAHY--KUr31Mtknl9wJ-3" edge="1">
          <mxGeometry width="50" height="50" relative="1" as="geometry">
            <mxPoint x="280" y="870" as="sourcePoint" />
            <mxPoint x="330" y="820" as="targetPoint" />
          </mxGeometry>
        </mxCell>
        <mxCell id="_uAHY--KUr31Mtknl9wJ-5" value="&lt;font style=&quot;font-size: 24px&quot;&gt;&amp;lt;Side NavBar&amp;gt;&lt;/font&gt;" style="text;html=1;strokeColor=none;fillColor=none;align=center;verticalAlign=middle;whiteSpace=wrap;rounded=0;" parent="1" vertex="1">
          <mxGeometry x="50" y="110" width="180" height="30" as="geometry" />
        </mxCell>
        <mxCell id="_uAHY--KUr31Mtknl9wJ-6" value="&lt;i&gt;&lt;font style=&quot;font-size: 25px&quot;&gt;LOGO&lt;/font&gt;&lt;/i&gt;" style="text;html=1;strokeColor=#006EAF;fillColor=#1ba1e2;align=center;verticalAlign=middle;whiteSpace=wrap;rounded=0;fontColor=#ffffff;" parent="1" vertex="1">
          <mxGeometry x="70" y="30" width="110" height="40" as="geometry" />
        </mxCell>
        <mxCell id="_uAHY--KUr31Mtknl9wJ-7" value="" style="strokeWidth=1;shadow=0;dashed=0;align=center;html=1;shape=mxgraph.mockup.forms.rrect;rSize=0;strokeColor=#999999;fillColor=#ffffff;" parent="1" vertex="1">
          <mxGeometry y="270" width="250" height="60" as="geometry" />
        </mxCell>
        <mxCell id="_uAHY--KUr31Mtknl9wJ-8" value="&lt;font style=&quot;font-size: 27px&quot;&gt;Productos &lt;/font&gt;▼" style="strokeWidth=1;shadow=0;dashed=0;align=center;html=1;shape=mxgraph.mockup.forms.rrect;rSize=0;strokeColor=#006EAF;fontSize=17;fillColor=#1ba1e2;resizeWidth=1;fontColor=#ffffff;" parent="_uAHY--KUr31Mtknl9wJ-7" vertex="1">
          <mxGeometry width="250" height="60" relative="1" as="geometry">
            <mxPoint as="offset" />
          </mxGeometry>
        </mxCell>
        <mxCell id="_uAHY--KUr31Mtknl9wJ-11" value="&lt;font style=&quot;font-size: 28px&quot;&gt;Provedores &lt;/font&gt;&lt;font style=&quot;font-size: 19px&quot;&gt;▼&lt;/font&gt;" style="rounded=0;whiteSpace=wrap;html=1;" parent="1" vertex="1">
          <mxGeometry y="360" width="250" height="65" as="geometry" />
        </mxCell>
        <mxCell id="_uAHY--KUr31Mtknl9wJ-12" value="&lt;font style=&quot;font-size: 31px&quot;&gt;Inventario&lt;/font&gt;" style="rounded=0;whiteSpace=wrap;html=1;" parent="1" vertex="1">
          <mxGeometry y="442.5" width="250" height="65" as="geometry" />
        </mxCell>
        <mxCell id="_uAHY--KUr31Mtknl9wJ-25" value="" style="strokeWidth=1;shadow=0;dashed=0;align=center;html=1;shape=mxgraph.mockup.containers.marginRect2;rectMarginLeft=67;strokeColor=#36393d;fillColor=#eeeeee;" parent="1" vertex="1">
          <mxGeometry x="270" y="160" width="750" height="560" as="geometry" />
        </mxCell>
        <mxCell id="AbV2LeKn4ZKA3L7Wp7C7-1" value="" style="rounded=1;whiteSpace=wrap;html=1;" vertex="1" parent="_uAHY--KUr31Mtknl9wJ-25">
          <mxGeometry x="360" y="129.23076923076925" width="260" height="51.6923076923077" as="geometry" />
        </mxCell>
        <mxCell id="_uAHY--KUr31Mtknl9wJ-29" value="" style="strokeWidth=1;shadow=0;dashed=0;align=center;html=1;shape=mxgraph.mockup.containers.leftButton;rSize=5;strokeColor=#008cff;fillColor=#008cff;resizeHeight=1;movable=0;deletable=0;" parent="_uAHY--KUr31Mtknl9wJ-25" vertex="1">
          <mxGeometry width="7" height="560" relative="1" as="geometry">
            <mxPoint x="60" as="offset" />
          </mxGeometry>
        </mxCell>
        <mxCell id="_uAHY--KUr31Mtknl9wJ-31" value="" style="verticalLabelPosition=bottom;shadow=0;dashed=0;align=center;html=1;verticalAlign=top;strokeWidth=1;shape=mxgraph.mockup.graphics.simpleIcon;strokeColor=#999999;" parent="_uAHY--KUr31Mtknl9wJ-25" vertex="1">
          <mxGeometry x="150" y="77.24360742705571" width="170" height="172.3076923076923" as="geometry" />
        </mxCell>
        <mxCell id="_uAHY--KUr31Mtknl9wJ-34" value="&lt;h1&gt;Producto&lt;/h1&gt;&lt;p&gt;Descripción&lt;/p&gt;&lt;p&gt;Lorem ipsum dolor sit amet, consectetur adipisicing elit, sed do eiusmod tempor incididunt ut labore et dolore magna aliqua.&lt;/p&gt;" style="text;html=1;strokeColor=none;fillColor=none;spacing=5;spacingTop=-20;whiteSpace=wrap;overflow=hidden;rounded=0;" parent="_uAHY--KUr31Mtknl9wJ-25" vertex="1">
          <mxGeometry x="365" y="60.310663129973484" width="250" height="120.61538461538464" as="geometry" />
        </mxCell>
        <mxCell id="_uAHY--KUr31Mtknl9wJ-35" value="Precio:&amp;nbsp;&amp;nbsp;&amp;nbsp; XXX" style="text;html=1;strokeColor=none;fillColor=none;align=center;verticalAlign=middle;whiteSpace=wrap;rounded=0;" parent="_uAHY--KUr31Mtknl9wJ-25" vertex="1">
          <mxGeometry x="360" y="206.7692307692308" width="100" height="17.230769230769234" as="geometry" />
        </mxCell>
        <mxCell id="_uAHY--KUr31Mtknl9wJ-36" value="id&amp;nbsp;&amp;nbsp; :&amp;nbsp;&amp;nbsp; XXX" style="text;html=1;strokeColor=none;fillColor=none;align=center;verticalAlign=middle;whiteSpace=wrap;rounded=0;" parent="_uAHY--KUr31Mtknl9wJ-25" vertex="1">
          <mxGeometry x="370" y="224.00000000000003" width="100" height="17.230769230769234" as="geometry" />
        </mxCell>
        <mxCell id="_uAHY--KUr31Mtknl9wJ-93" value="&amp;lt;ProuctoInfo&amp;gt;" style="text;html=1;strokeColor=#666666;fillColor=#f5f5f5;align=center;verticalAlign=middle;whiteSpace=wrap;rounded=0;fontColor=#333333;" parent="_uAHY--KUr31Mtknl9wJ-25" vertex="1">
          <mxGeometry x="90" y="8.615384615384617" width="140" height="17.230769230769234" as="geometry" />
        </mxCell>
        <mxCell id="_uAHY--KUr31Mtknl9wJ-38" value="" style="strokeWidth=1;shadow=0;dashed=0;align=center;html=1;shape=mxgraph.mockup.forms.rrect;rSize=0;strokeColor=#999999;fillColor=#ffffff;" parent="_uAHY--KUr31Mtknl9wJ-25" vertex="1">
          <mxGeometry x="360" y="284.3076923076924" width="150" height="103.3846153846154" as="geometry" />
        </mxCell>
        <mxCell id="_uAHY--KUr31Mtknl9wJ-39" value="Provedores" style="strokeWidth=1;shadow=0;dashed=0;align=center;html=1;shape=mxgraph.mockup.forms.rrect;rSize=0;strokeColor=#999999;fontColor=#008cff;fontSize=17;fillColor=#ffffff;resizeWidth=1;" parent="_uAHY--KUr31Mtknl9wJ-38" vertex="1">
          <mxGeometry width="150" height="30" relative="1" as="geometry" />
        </mxCell>
        <mxCell id="_uAHY--KUr31Mtknl9wJ-40" value="Item 1" style="strokeWidth=1;shadow=0;dashed=0;align=center;html=1;shape=mxgraph.mockup.forms.anchor;fontSize=17;fontColor=#666666;align=left;spacingLeft=5;resizeWidth=1;" parent="_uAHY--KUr31Mtknl9wJ-38" vertex="1">
          <mxGeometry width="150" height="20" relative="1" as="geometry">
            <mxPoint y="30" as="offset" />
          </mxGeometry>
        </mxCell>
        <mxCell id="_uAHY--KUr31Mtknl9wJ-41" value="Item 2" style="strokeWidth=1;shadow=0;dashed=0;align=center;html=1;shape=mxgraph.mockup.forms.anchor;fontSize=17;fontColor=#666666;align=left;spacingLeft=5;resizeWidth=1;" parent="_uAHY--KUr31Mtknl9wJ-38" vertex="1">
          <mxGeometry width="150" height="20" relative="1" as="geometry">
            <mxPoint y="50" as="offset" />
          </mxGeometry>
        </mxCell>
        <mxCell id="_uAHY--KUr31Mtknl9wJ-42" value="&lt;font color=&quot;#4D4D4D&quot;&gt;Item 3&lt;/font&gt;" style="strokeWidth=1;shadow=0;dashed=0;align=center;html=1;shape=mxgraph.mockup.forms.rrect;rSize=0;fontSize=17;align=left;spacingLeft=5;resizeWidth=1;strokeColor=none;" parent="_uAHY--KUr31Mtknl9wJ-38" vertex="1">
          <mxGeometry width="150" height="20" relative="1" as="geometry">
            <mxPoint y="70" as="offset" />
          </mxGeometry>
        </mxCell>
        <mxCell id="_uAHY--KUr31Mtknl9wJ-43" value="Item 4" style="strokeWidth=1;shadow=0;dashed=0;align=center;html=1;shape=mxgraph.mockup.forms.anchor;fontSize=17;fontColor=#666666;align=left;spacingLeft=5;resizeWidth=1;" parent="_uAHY--KUr31Mtknl9wJ-38" vertex="1">
          <mxGeometry width="150" height="20" relative="1" as="geometry">
            <mxPoint y="90" as="offset" />
          </mxGeometry>
        </mxCell>
        <mxCell id="_uAHY--KUr31Mtknl9wJ-44" value="&lt;h1&gt;&amp;lt;HEADER&amp;gt;&lt;br&gt;&lt;/h1&gt;" style="rounded=0;whiteSpace=wrap;html=1;fillColor=#dae8fc;strokeColor=#6c8ebf;" parent="1" vertex="1">
          <mxGeometry x="1190" width="1100" height="100" as="geometry" />
        </mxCell>
        <mxCell id="_uAHY--KUr31Mtknl9wJ-45" value="" style="rounded=0;whiteSpace=wrap;html=1;fillColor=#f5f5f5;strokeColor=#666666;fontColor=#333333;" parent="1" vertex="1">
          <mxGeometry x="1190" y="100" width="250" height="750" as="geometry" />
        </mxCell>
        <mxCell id="_uAHY--KUr31Mtknl9wJ-46" value="" style="verticalLabelPosition=bottom;shadow=0;dashed=0;align=center;html=1;verticalAlign=top;strokeWidth=1;shape=mxgraph.mockup.navigation.scrollBar;strokeColor=#999999;barPos=20;fillColor2=#99ddff;strokeColor2=none;direction=north;" parent="1" vertex="1">
          <mxGeometry x="2270" y="100" width="20" height="750" as="geometry" />
        </mxCell>
        <mxCell id="_uAHY--KUr31Mtknl9wJ-47" value="" style="endArrow=none;html=1;exitX=1;exitY=1;exitDx=0;exitDy=0;entryX=0;entryY=0.07;entryDx=0;entryDy=0;entryPerimeter=0;" parent="1" source="_uAHY--KUr31Mtknl9wJ-45" target="_uAHY--KUr31Mtknl9wJ-46" edge="1">
          <mxGeometry width="50" height="50" relative="1" as="geometry">
            <mxPoint x="1470" y="870" as="sourcePoint" />
            <mxPoint x="1520" y="820" as="targetPoint" />
          </mxGeometry>
        </mxCell>
        <mxCell id="_uAHY--KUr31Mtknl9wJ-48" value="&lt;font style=&quot;font-size: 24px&quot;&gt;&amp;lt;Side NavBar&amp;gt;&lt;/font&gt;" style="text;html=1;strokeColor=none;fillColor=none;align=center;verticalAlign=middle;whiteSpace=wrap;rounded=0;" parent="1" vertex="1">
          <mxGeometry x="1240" y="110" width="180" height="30" as="geometry" />
        </mxCell>
        <mxCell id="_uAHY--KUr31Mtknl9wJ-49" value="&lt;i&gt;&lt;font style=&quot;font-size: 25px&quot;&gt;LOGO&lt;/font&gt;&lt;/i&gt;" style="text;html=1;strokeColor=#006EAF;fillColor=#1ba1e2;align=center;verticalAlign=middle;whiteSpace=wrap;rounded=0;fontColor=#ffffff;" parent="1" vertex="1">
          <mxGeometry x="1260" y="30" width="110" height="40" as="geometry" />
        </mxCell>
        <mxCell id="_uAHY--KUr31Mtknl9wJ-50" value="" style="strokeWidth=1;shadow=0;dashed=0;align=center;html=1;shape=mxgraph.mockup.forms.rrect;rSize=0;strokeColor=#999999;fillColor=#ffffff;" parent="1" vertex="1">
          <mxGeometry x="1190" y="270" width="250" height="60" as="geometry" />
        </mxCell>
        <mxCell id="_uAHY--KUr31Mtknl9wJ-51" value="&lt;font style=&quot;font-size: 27px&quot;&gt;Productos &lt;/font&gt;▼" style="strokeWidth=1;shadow=0;dashed=0;align=center;html=1;shape=mxgraph.mockup.forms.rrect;rSize=0;strokeColor=#006EAF;fontSize=17;fillColor=#1ba1e2;resizeWidth=1;fontColor=#ffffff;" parent="_uAHY--KUr31Mtknl9wJ-50" vertex="1">
          <mxGeometry width="250" height="60" relative="1" as="geometry">
            <mxPoint as="offset" />
          </mxGeometry>
        </mxCell>
        <mxCell id="_uAHY--KUr31Mtknl9wJ-52" value="&lt;font style=&quot;font-size: 28px&quot;&gt;Provedores &lt;/font&gt;&lt;font style=&quot;font-size: 19px&quot;&gt;▼&lt;/font&gt;" style="rounded=0;whiteSpace=wrap;html=1;" parent="1" vertex="1">
          <mxGeometry x="1190" y="360" width="250" height="65" as="geometry" />
        </mxCell>
        <mxCell id="_uAHY--KUr31Mtknl9wJ-53" value="&lt;font style=&quot;font-size: 31px&quot;&gt;Inventario&lt;/font&gt;" style="rounded=0;whiteSpace=wrap;html=1;" parent="1" vertex="1">
          <mxGeometry x="1190" y="442.5" width="250" height="65" as="geometry" />
        </mxCell>
        <mxCell id="_uAHY--KUr31Mtknl9wJ-54" value="" style="strokeWidth=1;shadow=0;dashed=0;align=center;html=1;shape=mxgraph.mockup.containers.marginRect2;rectMarginLeft=67;strokeColor=#36393d;fillColor=#eeeeee;" parent="1" vertex="1">
          <mxGeometry x="1470" y="150" width="750" height="650" as="geometry" />
        </mxCell>
        <mxCell id="_uAHY--KUr31Mtknl9wJ-57" value="" style="strokeWidth=1;shadow=0;dashed=0;align=center;html=1;shape=mxgraph.mockup.containers.leftButton;rSize=5;strokeColor=#008cff;fillColor=#008cff;resizeHeight=1;movable=0;deletable=0;" parent="_uAHY--KUr31Mtknl9wJ-54" vertex="1">
          <mxGeometry width="7" height="650" relative="1" as="geometry">
            <mxPoint x="60" as="offset" />
          </mxGeometry>
        </mxCell>
        <mxCell id="_uAHY--KUr31Mtknl9wJ-58" value="" style="verticalLabelPosition=bottom;shadow=0;dashed=0;align=center;html=1;verticalAlign=top;strokeWidth=1;shape=mxgraph.mockup.graphics.simpleIcon;strokeColor=#999999;" parent="_uAHY--KUr31Mtknl9wJ-54" vertex="1">
          <mxGeometry x="140" y="40" width="170" height="200" as="geometry" />
        </mxCell>
        <mxCell id="_uAHY--KUr31Mtknl9wJ-68" value="Aplicar cambios" style="strokeWidth=1;shadow=0;dashed=0;align=center;html=1;shape=mxgraph.mockup.buttons.button;strokeColor=#666666;fontColor=#ffffff;mainText=;buttonStyle=round;fontSize=17;fontStyle=1;fillColor=#008cff;whiteSpace=wrap;" parent="_uAHY--KUr31Mtknl9wJ-54" vertex="1">
          <mxGeometry x="435" y="570" width="140" height="45" as="geometry" />
        </mxCell>
        <mxCell id="_uAHY--KUr31Mtknl9wJ-69" value="" style="rounded=1;whiteSpace=wrap;html=1;" parent="_uAHY--KUr31Mtknl9wJ-54" vertex="1">
          <mxGeometry x="360" y="90" width="120" height="30" as="geometry" />
        </mxCell>
        <mxCell id="_uAHY--KUr31Mtknl9wJ-70" value="Nombre: " style="text;html=1;strokeColor=none;fillColor=none;align=center;verticalAlign=middle;whiteSpace=wrap;rounded=0;" parent="_uAHY--KUr31Mtknl9wJ-54" vertex="1">
          <mxGeometry x="360" y="60" width="160" height="20" as="geometry" />
        </mxCell>
        <mxCell id="_uAHY--KUr31Mtknl9wJ-71" value="Descripcion" style="text;html=1;strokeColor=none;fillColor=none;align=center;verticalAlign=middle;whiteSpace=wrap;rounded=0;" parent="_uAHY--KUr31Mtknl9wJ-54" vertex="1">
          <mxGeometry x="370" y="150" width="60" height="20" as="geometry" />
        </mxCell>
        <mxCell id="_uAHY--KUr31Mtknl9wJ-72" value="" style="rounded=1;whiteSpace=wrap;html=1;" parent="_uAHY--KUr31Mtknl9wJ-54" vertex="1">
          <mxGeometry x="360" y="180" width="270" height="70" as="geometry" />
        </mxCell>
        <mxCell id="_uAHY--KUr31Mtknl9wJ-73" value="Precio" style="text;html=1;strokeColor=none;fillColor=none;align=center;verticalAlign=middle;whiteSpace=wrap;rounded=0;" parent="_uAHY--KUr31Mtknl9wJ-54" vertex="1">
          <mxGeometry x="360" y="290" width="60" height="20" as="geometry" />
        </mxCell>
        <mxCell id="_uAHY--KUr31Mtknl9wJ-74" value="" style="rounded=1;whiteSpace=wrap;html=1;" parent="_uAHY--KUr31Mtknl9wJ-54" vertex="1">
          <mxGeometry x="435" y="290" width="120" height="20" as="geometry" />
        </mxCell>
        <mxCell id="_uAHY--KUr31Mtknl9wJ-75" value="&lt;div&gt;Agregar Proveedor&lt;/div&gt;&lt;div&gt;&lt;br&gt;&lt;/div&gt;" style="text;html=1;strokeColor=none;fillColor=none;align=center;verticalAlign=middle;whiteSpace=wrap;rounded=0;" parent="_uAHY--KUr31Mtknl9wJ-54" vertex="1">
          <mxGeometry x="150" y="320" width="130" height="35" as="geometry" />
        </mxCell>
        <mxCell id="_uAHY--KUr31Mtknl9wJ-76" value="" style="rounded=1;whiteSpace=wrap;html=1;" parent="_uAHY--KUr31Mtknl9wJ-54" vertex="1">
          <mxGeometry x="150" y="360" width="120" height="20" as="geometry" />
        </mxCell>
        <mxCell id="_uAHY--KUr31Mtknl9wJ-77" value="Subir imagen" style="strokeWidth=1;shadow=0;dashed=0;align=center;html=1;shape=mxgraph.mockup.buttons.button;strokeColor=#666666;fontColor=#ffffff;mainText=;buttonStyle=round;fontSize=17;fontStyle=1;fillColor=#008cff;whiteSpace=wrap;" parent="_uAHY--KUr31Mtknl9wJ-54" vertex="1">
          <mxGeometry x="145" y="250" width="85" height="45" as="geometry" />
        </mxCell>
        <mxCell id="_uAHY--KUr31Mtknl9wJ-78" value="Borrar Imagen" style="strokeWidth=1;shadow=0;dashed=0;align=center;html=1;shape=mxgraph.mockup.buttons.button;strokeColor=#6F0000;mainText=;buttonStyle=round;fontSize=17;fontStyle=1;fillColor=#a20025;whiteSpace=wrap;fontColor=#ffffff;" parent="_uAHY--KUr31Mtknl9wJ-54" vertex="1">
          <mxGeometry x="240" y="250" width="85" height="45" as="geometry" />
        </mxCell>
        <mxCell id="_uAHY--KUr31Mtknl9wJ-79" value="&lt;div&gt;Borrar Producto&lt;/div&gt;&lt;div&gt;X&lt;br&gt;&lt;/div&gt;" style="rounded=1;whiteSpace=wrap;html=1;fillColor=#f8cecc;strokeColor=#b85450;" parent="_uAHY--KUr31Mtknl9wJ-54" vertex="1">
          <mxGeometry x="650" y="40" width="70" height="50" as="geometry" />
        </mxCell>
        <mxCell id="_uAHY--KUr31Mtknl9wJ-80" value="&lt;div&gt;Remover Provedor&lt;/div&gt;&lt;div&gt;&lt;br&gt;&lt;/div&gt;" style="text;html=1;strokeColor=none;fillColor=none;align=center;verticalAlign=middle;whiteSpace=wrap;rounded=0;" parent="_uAHY--KUr31Mtknl9wJ-54" vertex="1">
          <mxGeometry x="175" y="410" width="70" height="27.5" as="geometry" />
        </mxCell>
        <mxCell id="_uAHY--KUr31Mtknl9wJ-85" value="" style="strokeWidth=1;shadow=0;dashed=0;align=center;html=1;shape=mxgraph.mockup.forms.rrect;rSize=0;strokeColor=#999999;fillColor=#ffffff;" parent="_uAHY--KUr31Mtknl9wJ-54" vertex="1">
          <mxGeometry x="140" y="450" width="150" height="120" as="geometry" />
        </mxCell>
        <mxCell id="_uAHY--KUr31Mtknl9wJ-86" value="Provedores" style="strokeWidth=1;shadow=0;dashed=0;align=center;html=1;shape=mxgraph.mockup.forms.rrect;rSize=0;strokeColor=#999999;fontColor=#008cff;fontSize=17;fillColor=#ffffff;resizeWidth=1;" parent="_uAHY--KUr31Mtknl9wJ-85" vertex="1">
          <mxGeometry width="150" height="30" relative="1" as="geometry" />
        </mxCell>
        <mxCell id="_uAHY--KUr31Mtknl9wJ-87" value="Item 1" style="strokeWidth=1;shadow=0;dashed=0;align=center;html=1;shape=mxgraph.mockup.forms.anchor;fontSize=17;fontColor=#666666;align=left;spacingLeft=5;resizeWidth=1;" parent="_uAHY--KUr31Mtknl9wJ-85" vertex="1">
          <mxGeometry width="150" height="20" relative="1" as="geometry">
            <mxPoint y="30" as="offset" />
          </mxGeometry>
        </mxCell>
        <mxCell id="_uAHY--KUr31Mtknl9wJ-88" value="Item 2" style="strokeWidth=1;shadow=0;dashed=0;align=center;html=1;shape=mxgraph.mockup.forms.anchor;fontSize=17;fontColor=#666666;align=left;spacingLeft=5;resizeWidth=1;" parent="_uAHY--KUr31Mtknl9wJ-85" vertex="1">
          <mxGeometry width="150" height="20" relative="1" as="geometry">
            <mxPoint y="50" as="offset" />
          </mxGeometry>
        </mxCell>
        <mxCell id="_uAHY--KUr31Mtknl9wJ-89" value="Item 3" style="strokeWidth=1;shadow=0;dashed=0;align=center;html=1;shape=mxgraph.mockup.forms.rrect;rSize=0;fontSize=17;align=left;spacingLeft=5;resizeWidth=1;strokeColor=#b85450;fillColor=#f8cecc;" parent="_uAHY--KUr31Mtknl9wJ-85" vertex="1">
          <mxGeometry width="150" height="20" relative="1" as="geometry">
            <mxPoint y="70" as="offset" />
          </mxGeometry>
        </mxCell>
        <mxCell id="_uAHY--KUr31Mtknl9wJ-90" value="Item 4" style="strokeWidth=1;shadow=0;dashed=0;align=center;html=1;shape=mxgraph.mockup.forms.anchor;fontSize=17;fontColor=#666666;align=left;spacingLeft=5;resizeWidth=1;" parent="_uAHY--KUr31Mtknl9wJ-85" vertex="1">
          <mxGeometry width="150" height="20" relative="1" as="geometry">
            <mxPoint y="90" as="offset" />
          </mxGeometry>
        </mxCell>
        <mxCell id="_uAHY--KUr31Mtknl9wJ-94" value="&amp;lt;ProuctoEditar&amp;gt;" style="text;html=1;strokeColor=#666666;fillColor=#f5f5f5;align=center;verticalAlign=middle;whiteSpace=wrap;rounded=0;fontColor=#333333;" parent="_uAHY--KUr31Mtknl9wJ-54" vertex="1">
          <mxGeometry x="80" y="10" width="140" height="20" as="geometry" />
        </mxCell>
        <mxCell id="_uAHY--KUr31Mtknl9wJ-95" style="edgeStyle=orthogonalEdgeStyle;rounded=0;orthogonalLoop=1;jettySize=auto;html=1;" parent="1" source="_uAHY--KUr31Mtknl9wJ-92" target="_uAHY--KUr31Mtknl9wJ-25" edge="1">
          <mxGeometry relative="1" as="geometry" />
        </mxCell>
        <mxCell id="_uAHY--KUr31Mtknl9wJ-92" value="&lt;h1&gt;Componente 6: ProductoInfo&lt;br&gt;&lt;/h1&gt;&lt;p&gt;Componente que muestra la informacion de un producto.&lt;br&gt;&lt;/p&gt;&lt;p&gt;&lt;br&gt;&lt;/p&gt;&lt;p&gt;&lt;br&gt;&lt;/p&gt;&lt;p&gt;&lt;br&gt;&lt;/p&gt;&lt;p&gt;&lt;br&gt;&lt;/p&gt;" style="text;html=1;strokeColor=#d6b656;fillColor=#fff2cc;spacing=5;spacingTop=-20;whiteSpace=wrap;overflow=hidden;rounded=0;" parent="1" vertex="1">
          <mxGeometry x="445" y="950" width="400" height="80" as="geometry" />
        </mxCell>
        <mxCell id="AbV2LeKn4ZKA3L7Wp7C7-7" style="edgeStyle=orthogonalEdgeStyle;rounded=0;orthogonalLoop=1;jettySize=auto;html=1;" edge="1" parent="1" source="AbV2LeKn4ZKA3L7Wp7C7-2" target="_uAHY--KUr31Mtknl9wJ-54">
          <mxGeometry relative="1" as="geometry" />
        </mxCell>
        <mxCell id="AbV2LeKn4ZKA3L7Wp7C7-2" value="&lt;h1&gt;Componente 7: EditarProducto &lt;br&gt;&lt;/h1&gt;&lt;p&gt;Componente que permite editar la informacion de un producto y subir imágenes de este.&lt;/p&gt;&lt;p&gt;&lt;br&gt;&lt;/p&gt;&lt;p&gt;&lt;br&gt;&lt;/p&gt;&lt;p&gt;&lt;br&gt;&lt;/p&gt;&lt;p&gt;&lt;br&gt;&lt;/p&gt;&lt;p&gt;&lt;br&gt;&lt;/p&gt;" style="text;html=1;strokeColor=#d6b656;fillColor=#fff2cc;spacing=5;spacingTop=-20;whiteSpace=wrap;overflow=hidden;rounded=0;" vertex="1" parent="1">
          <mxGeometry x="1645" y="930" width="400" height="80" as="geometry" />
        </mxCell>
        <mxCell id="AbV2LeKn4ZKA3L7Wp7C7-3" value="Info" style="strokeWidth=1;shadow=0;dashed=0;align=center;html=1;shape=mxgraph.mockup.containers.rrect;rSize=0;fontSize=17;" vertex="1" parent="1">
          <mxGeometry x="1470" y="160" width="60" height="25" as="geometry" />
        </mxCell>
        <mxCell id="AbV2LeKn4ZKA3L7Wp7C7-4" value="Editar" style="strokeWidth=1;shadow=0;dashed=0;align=center;html=1;shape=mxgraph.mockup.containers.rrect;rSize=0;fontSize=17;fillColor=#1ba1e2;strokeColor=#006EAF;fontColor=#ffffff;" vertex="1" parent="1">
          <mxGeometry x="1470" y="185" width="60" height="25" as="geometry" />
        </mxCell>
        <mxCell id="AbV2LeKn4ZKA3L7Wp7C7-5" value="Info" style="strokeWidth=1;shadow=0;dashed=0;align=center;html=1;shape=mxgraph.mockup.containers.rrect;rSize=0;fontSize=17;" vertex="1" parent="1">
          <mxGeometry x="270" y="180" width="60" height="25" as="geometry" />
        </mxCell>
        <mxCell id="AbV2LeKn4ZKA3L7Wp7C7-6" value="Editar" style="strokeWidth=1;shadow=0;dashed=0;align=center;html=1;shape=mxgraph.mockup.containers.rrect;rSize=0;fontSize=17;fillColor=#1ba1e2;strokeColor=#006EAF;fontColor=#ffffff;" vertex="1" parent="1">
          <mxGeometry x="270" y="205" width="60" height="25" as="geometry" />
        </mxCell>
        <mxCell id="AbV2LeKn4ZKA3L7Wp7C7-9" style="edgeStyle=orthogonalEdgeStyle;rounded=0;orthogonalLoop=1;jettySize=auto;html=1;" edge="1" parent="1" source="AbV2LeKn4ZKA3L7Wp7C7-8">
          <mxGeometry relative="1" as="geometry">
            <mxPoint x="1500" y="850" as="targetPoint" />
          </mxGeometry>
        </mxCell>
        <mxCell id="AbV2LeKn4ZKA3L7Wp7C7-10" style="edgeStyle=orthogonalEdgeStyle;rounded=0;orthogonalLoop=1;jettySize=auto;html=1;" edge="1" parent="1" source="AbV2LeKn4ZKA3L7Wp7C7-8">
          <mxGeometry relative="1" as="geometry">
            <mxPoint x="893.3333333333334" y="850" as="targetPoint" />
          </mxGeometry>
        </mxCell>
        <mxCell id="AbV2LeKn4ZKA3L7Wp7C7-8" value="&lt;h1&gt;Componente 8:Producto &lt;br&gt;&lt;/h1&gt;&lt;p&gt;Componente que alberga 2 pestañas para ver la informacion y editar productos&lt;br&gt;&lt;/p&gt;&lt;p&gt;&lt;br&gt;&lt;/p&gt;&lt;p&gt;&lt;br&gt;&lt;/p&gt;&lt;p&gt;&lt;br&gt;&lt;/p&gt;&lt;p&gt;&lt;br&gt;&lt;/p&gt;" style="text;html=1;strokeColor=#d6b656;fillColor=#fff2cc;spacing=5;spacingTop=-20;whiteSpace=wrap;overflow=hidden;rounded=0;" vertex="1" parent="1">
          <mxGeometry x="980" y="1010" width="400" height="80" as="geometry" />
        </mxCell>
        <mxCell id="AbV2LeKn4ZKA3L7Wp7C7-11" value="&lt;font style=&quot;font-size: 22px&quot;&gt;&amp;lt;Producto&amp;gt;&lt;/font&gt;" style="text;html=1;strokeColor=#666666;fillColor=#f5f5f5;align=center;verticalAlign=middle;whiteSpace=wrap;rounded=0;fontColor=#333333;" vertex="1" parent="1">
          <mxGeometry x="350" y="120" width="150" height="20" as="geometry" />
        </mxCell>
        <mxCell id="AbV2LeKn4ZKA3L7Wp7C7-12" value="&lt;font style=&quot;font-size: 22px&quot;&gt;&amp;lt;Producto&amp;gt;&lt;/font&gt;" style="text;html=1;strokeColor=#666666;fillColor=#f5f5f5;align=center;verticalAlign=middle;whiteSpace=wrap;rounded=0;fontColor=#333333;" vertex="1" parent="1">
          <mxGeometry x="1470" y="115" width="150" height="20" as="geometry" />
        </mxCell>
      </root>
    </mxGraphModel>
  </diagram>
</mxfile>
